<mxfile host="app.diagrams.net" modified="2024-06-29T07:37:05.993Z" agent="Mozilla/5.0 (Windows NT 10.0; Win64; x64) AppleWebKit/537.36 (KHTML, like Gecko) Chrome/126.0.0.0 Safari/537.36" version="24.3.0" etag="MzX1FMvo8VDH9PS0jszK" type="github">
  <diagram name="Page-1" id="0ywj6_fYyu7zLeh9Kbhy">
    <mxGraphModel>
      <root>
        <mxCell id="0" />
        <mxCell id="1" parent="0" />
      </root>
    </mxGraphModel>
  </diagram>
</mxfile>
